<svg xmlns="http://www.w3.org/2000/svg" xmlns:xlink="http://www.w3.org/1999/xlink" width="726" height="294" viewBox="0 0 726 294">
    <defs>
        <clipPath id="clip-path">
            <path id="사각형_5" data-name="사각형 5" style="fill:none" d="M0 0h138.131v35.684H0z"/>
        </clipPath>
        <clipPath id="clip-path-2">
            <path id="패스_6" data-name="패스 6" d="M0 4.626v12.345l4.685-3.425v-8.92z" transform="translate(0 -4.626)" style="fill:none"/>
        </clipPath>
        <clipPath id="clip-path-4">
            <path id="패스_9" data-name="패스 9" d="M86.861 30.552h4.68v-8.921l-4.68-3.683z" transform="translate(-86.861 -17.948)" style="fill:none"/>
        </clipPath>
        <filter id="사각형_9" x="496" y="120" width="156.131" height="53.684" filterUnits="userSpaceOnUse">
            <feOffset/>
            <feGaussianBlur stdDeviation="3" result="blur"/>
            <feFlood flood-opacity=".18"/>
            <feComposite operator="in" in2="blur"/>
            <feComposite in="SourceGraphic"/>
        </filter>
        <filter id="banana_" x="90" y="121" width="122" height="52" filterUnits="userSpaceOnUse">
            <feOffset/>
            <feGaussianBlur stdDeviation="3" result="blur-2"/>
            <feFlood flood-opacity=".18"/>
            <feComposite operator="in" in2="blur-2"/>
            <feComposite in="SourceGraphic"/>
        </filter>
        <filter id="apple" x="269" y="121" width="92" height="52" filterUnits="userSpaceOnUse">
            <feOffset/>
            <feGaussianBlur stdDeviation="3" result="blur-3"/>
            <feFlood flood-opacity=".18"/>
            <feComposite operator="in" in2="blur-3"/>
            <feComposite in="SourceGraphic"/>
        </filter>
        <linearGradient id="linear-gradient" y1="2.493" x2=".216" y2="2.493" gradientUnits="objectBoundingBox">
            <stop offset="0" stop-color="#0d8e91"/>
            <stop offset="1" stop-color="#35b8c7"/>
        </linearGradient>
        <linearGradient id="linear-gradient-2" x1="-18.793" y1="1.371" x2="-18.577" y2="1.371" xlink:href="#linear-gradient"/>
        <style>
            
        </style>
    </defs>
    <g id="img_banaple" transform="translate(-3 -6)">
        <g id="box" transform="translate(8 6)" style="fill:rgba(0,0,0,.45);stroke:rgba(255,255,255,.4)">
            <rect width="716" height="294" rx="147" style="stroke:none"/>
            <rect x=".5" y=".5" width="715" height="293" rx="146.5" style="fill:none"/>
        </g>
        <g id="img" transform="translate(58.255 55.979)">
            <g id="banana" transform="translate(0 1)">
                <g id="사각형_36" data-name="사각형 36" transform="translate(-.255 .021)" style="stroke:rgba(255,255,255,.5);fill:rgba(0,0,0,.4);stroke-width:2px">
                    <rect width="192" height="192" rx="96" style="stroke:none"/>
                    <rect x="1" y="1" width="190" height="190" rx="95" style="fill:none"/>
                </g>
                <g transform="translate(-55.26 -50.98)" style="filter:url(#banana_)">
                    <text id="banana_2" data-name="banana" transform="translate(151 156)" style="font-size:27px;font-family:SpoqaHanSansNeo-Regular,Spoqa Han Sans Neo;fill:#fff"><tspan x="-51.233" y="0">Banana </tspan></text>
                </g>
            </g>
            <g id="apple-2" data-name="apple" transform="translate(163.552 1)">
                <g id="사각형_36-2" data-name="사각형 36" transform="translate(.193 .021)" style="stroke:rgba(255,255,255,.5);fill:rgba(0,0,0,.4);stroke-width:2px">
                    <rect width="192" height="192" rx="96" style="stroke:none"/>
                    <rect x="1" y="1" width="190" height="190" rx="95" style="fill:none"/>
                </g>
                <g transform="translate(-218.81 -50.98)" style="filter:url(#apple)">
                    <text id="apple-3" data-name="apple" transform="translate(315 156)" style="font-size:27px;font-family:SpoqaHanSansNeo-Regular,Spoqa Han Sans Neo;fill:#fff"><tspan x="-36.099" y="0">Apple</tspan></text>
                </g>
            </g>
            <g id="banaple" transform="translate(422.069)">
                <g id="사각형_36-3" data-name="사각형 36" transform="translate(-.324 .021)" style="stroke:#1dcad3;fill:rgba(0,0,0,.4);stroke-width:2px">
                    <rect width="194" height="194" rx="97" style="stroke:none"/>
                    <rect x="1" y="1" width="192" height="192" rx="96" style="fill:none"/>
                </g>
                <g id="img_logo" transform="translate(27.676 79.021)">
                    <g id="그룹_2" data-name="그룹 2">
                        <g id="그룹_1" data-name="그룹 1" style="clip-path:url(#clip-path)">
                            <path id="패스_1" data-name="패스 1" d="M44.454 7.12v20.272h-2.583v-3.53a9.666 9.666 0 0 1-7.926 4.055 10.622 10.622 0 0 1-10.853-10.752A10.473 10.473 0 0 1 33.946 6.6a9.069 9.069 0 0 1 7.926 4.054V7.12zM33.926 8.931a8.231 8.231 0 0 0-5.851 2.279 7.866 7.866 0 0 0-2.4 5.974 8.126 8.126 0 0 0 2.365 6.136 8.04 8.04 0 0 0 5.742 2.261 7.819 7.819 0 0 0 5.886-2.443 8.237 8.237 0 0 0 2.366-5.954 8.049 8.049 0 0 0-2.347-5.865 7.767 7.767 0 0 0-5.76-2.389" transform="translate(.384 .125)" style="fill:#35b8c7"/>
                            <path id="패스_2" data-name="패스 2" d="M45.841 27.39V7.119h2.582V9.78a7.3 7.3 0 0 1 6.285-3.18 8.51 8.51 0 0 1 6.266 2.443q2.475 2.444 2.473 7.311V27.39h-2.582V16.35a7.92 7.92 0 0 0-1.733-5.52 5.8 5.8 0 0 0-4.5-1.9 5.994 5.994 0 0 0-4.443 1.811q-1.769 1.79-1.769 5.61V27.39z" transform="translate(.763 .125)" style="fill:#35b8c7"/>
                            <path id="패스_3" data-name="패스 3" d="M85.75 7.12v20.272h-2.583v-3.53a9.665 9.665 0 0 1-7.926 4.055 10.62 10.62 0 0 1-10.852-10.752A10.472 10.472 0 0 1 75.242 6.6a9.069 9.069 0 0 1 7.926 4.054V7.12zM75.222 8.931a8.226 8.226 0 0 0-5.85 2.279 7.863 7.863 0 0 0-2.4 5.974 8.134 8.134 0 0 0 2.366 6.135 8.041 8.041 0 0 0 5.743 2.261 7.817 7.817 0 0 0 5.885-2.443 8.234 8.234 0 0 0 2.367-5.954 8.05 8.05 0 0 0-2.348-5.865 7.767 7.767 0 0 0-5.76-2.389" transform="translate(1.072 .125)" style="fill:#35b8c7"/>
                            <path id="사각형_4" data-name="사각형 4" transform="translate(112.1 .005)" style="fill:#35b8c7" d="M0 0h2.581v27.511H0z"/>
                            <path id="패스_4" data-name="패스 4" d="M117.723 18.216a7.006 7.006 0 0 0 2.4 5.067 7.849 7.849 0 0 0 5.633 2.3 8.427 8.427 0 0 0 3.847-1.1 7.235 7.235 0 0 0 3.25-3.8h2.747a11.571 11.571 0 0 1-4.082 5.374 9.846 9.846 0 0 1-5.742 1.865 10.1 10.1 0 0 1-7.567-3.184 10.365 10.365 0 0 1-3.069-7.386A10.71 10.71 0 0 1 118.1 9.8a10.451 10.451 0 0 1 14.971-.091 10.444 10.444 0 0 1 3.141 7.728v.78zm.037-2.336h15.872a8.128 8.128 0 0 0-2.853-5.122 7.788 7.788 0 0 0-5.02-1.828 7.877 7.877 0 0 0-5.507 2.118 7.069 7.069 0 0 0-2.492 4.832" transform="translate(1.916 .125)" style="fill:#35b8c7"/>
                            <path id="패스_5" data-name="패스 5" d="M4.7 18.516a2.351 2.351 0 0 1-3.959 1.715A4.647 4.647 0 0 1 0 17.365V2.356a2.352 2.352 0 1 1 4.7 0z" style="fill:#35b8c7"/>
                        </g>
                    </g>
                    <g id="그룹_4" data-name="그룹 4" transform="translate(0 4.684)">
                        <g id="그룹_3" data-name="그룹 3" style="clip-path:url(#clip-path-2)">
                            <path id="사각형_6" data-name="사각형 6" style="fill:url(#linear-gradient)" d="M0 0h4.685v12.345H0z"/>
                        </g>
                    </g>
                    <g id="그룹_6" data-name="그룹 6">
                        <g id="그룹_5" data-name="그룹 5" style="clip-path:url(#clip-path)">
                            <path id="패스_7" data-name="패스 7" d="M10.973 6.389a11 11 0 1 0 10.972 11 10.983 10.983 0 0 0-10.972-11m0 17.3a6.3 6.3 0 1 1 6.29-6.305 6.3 6.3 0 0 1-6.29 6.305" transform="translate(0 .121)" style="fill:#35b8c7"/>
                            <path id="패스_8" data-name="패스 8" d="M91.56 16.894a2.348 2.348 0 0 0-3.789-1.863 4.1 4.1 0 0 0-.911 2.731v15.291a2.35 2.35 0 1 0 4.7 0z" transform="translate(1.446 .276)" style="fill:#35b8c7"/>
                        </g>
                    </g>
                    <g id="그룹_8" data-name="그룹 8" transform="translate(88.319 18.398)">
                        <g id="그룹_7" data-name="그룹 7" style="clip-path:url(#clip-path-4)">
                            <path id="사각형_8" data-name="사각형 8" style="fill:url(#linear-gradient-2)" d="M0 0h4.68v12.604H0z"/>
                        </g>
                    </g>
                    <g id="그룹_10" data-name="그룹 10">
                        <g id="그룹_9" data-name="그룹 9" style="clip-path:url(#clip-path)">
                            <path id="패스_10" data-name="패스 10" d="M97.833 29.043a11 11 0 1 1 10.97-11 10.983 10.983 0 0 1-10.97 11m0-17.3a6.305 6.305 0 1 0 6.29 6.3 6.3 6.3 0 0 0-6.29-6.3" transform="translate(1.446 .134)" style="fill:#35b8c7"/>
                        </g>
                    </g>
                </g>
            </g>
            <g id="_" data-name="+" transform="translate(169.883 90.745)" style="opacity:.7">
                <path id="사각형_40" data-name="사각형 40" transform="translate(.862 6.276)" style="fill:#fff" d="M0 0h13v1H0z"/>
                <path id="사각형_41" data-name="사각형 41" transform="translate(6.862 .276)" style="fill:#fff" d="M0 0h1v13H0z"/>
            </g>
            <g id="_2" data-name="=" transform="translate(378.807 92.855)" style="opacity:.7">
                <path id="사각형_38" data-name="사각형 38" transform="translate(-.062 .166)" style="fill:#fff" d="M0 0h21v1H0z"/>
                <path id="사각형_39" data-name="사각형 39" transform="translate(-.062 8.166)" style="fill:#fff" d="M0 0h21v1H0z"/>
            </g>
        </g>
        <rect id="사각형_285" data-name="사각형 285" width="11" height="11" rx="5.5" transform="translate(3 148)" style="fill:#fff"/>
        <rect id="사각형_286" data-name="사각형 286" width="11" height="11" rx="5.5" transform="translate(718 148)" style="fill:#fff"/>
    </g>
</svg>
