<svg xmlns="http://www.w3.org/2000/svg" width="920" height="322" viewBox="0 0 920 322">
    <g data-name="사각형 211" transform="translate(4)" style="stroke:#1dcad3;stroke-dasharray:5 3;opacity:.8;fill:none">
        <rect width="317" height="317" rx="158.5" style="stroke:none"/>
        <rect x=".5" y=".5" width="316" height="316" rx="158" style="fill:none"/>
    </g>
    <text data-name="수평적 문화를 지향하고 실천하는 사람들" transform="translate(162 187)" style="font-family:SpoqaHanSansNeo-Regular,Spoqa Han Sans Neo;font-size:18px"><tspan x="-86.832" y="0">수평적 문화를 지향하고</tspan><tspan x="-59.976" y="28">실천하는 사람들</tspan></text>
    <text transform="translate(162 141)" style="font-size:20px;opacity:.4;fill:#10b2bb;font-family:SpoqaHanSansNeo-Regular,Spoqa Han Sans Neo"><tspan x="-58.62" y="0">horizontality</tspan></text>
    <text data-name="수평" transform="translate(162 109)" style="font-size:40px;font-family:SpoqaHanSansNeo-Bold,Spoqa Han Sans Neo;font-weight:700;fill:#10b2bb"><tspan x="-36.8" y="0">수평</tspan></text>
    <g>
        <g data-name="사각형 211" transform="translate(301)" style="stroke:#1dcad3;stroke-dasharray:5 3;opacity:.8;fill:none">
            <rect width="317" height="317" rx="158.5" style="stroke:none"/>
            <rect x=".5" y=".5" width="316" height="316" rx="158" style="fill:none"/>
        </g>
        <g data-name="TXT">
            <text data-name="적극적인 자기개발로 회사와 함께 성장하는 사람들" transform="translate(459 187)" style="font-family:SpoqaHanSansNeo-Regular,Spoqa Han Sans Neo;font-size:18px"><tspan x="-76.536" y="0">적극적인 자기개발로</tspan><tspan x="-78.552" y="28">회사와 함께 성장하는</tspan><tspan x="-24.84" y="56">사람들</tspan></text>
            <text transform="translate(459 141)" style="font-size:20px;opacity:.4;fill:#10b2bb;font-family:SpoqaHanSansNeo-Regular,Spoqa Han Sans Neo"><tspan x="-37.48" y="0">develop</tspan></text>
            <text data-name="성장" transform="translate(459 109)" style="font-size:40px;font-family:SpoqaHanSansNeo-Bold,Spoqa Han Sans Neo;font-weight:700;fill:#10b2bb"><tspan x="-36.8" y="0">성장</tspan></text>
        </g>
    </g>
    <g>
        <g data-name="사각형 211" transform="translate(598)" style="stroke:#1dcad3;stroke-dasharray:5 3;opacity:.8;fill:none">
            <rect width="317" height="317" rx="158.5" style="stroke:none"/>
            <rect x=".5" y=".5" width="316" height="316" rx="158" style="fill:none"/>
        </g>
        <g data-name="TXT">
            <text data-name="말보다는 행동으로 행동에서 습관으로 움직이는 사람들" transform="translate(756 187)" style="font-family:SpoqaHanSansNeo-Regular,Spoqa Han Sans Neo;font-size:18px"><tspan x="-68.256" y="0">말보다는 행동으로</tspan><tspan x="-103.392" y="28">행동에서 습관으로 움직이는</tspan><tspan x="-24.84" y="56">사람들</tspan></text>
            <text transform="translate(756 141)" style="font-size:20px;opacity:.4;fill:#10b2bb;font-family:SpoqaHanSansNeo-Regular,Spoqa Han Sans Neo"><tspan x="-24.07" y="0">habit</tspan></text>
            <text data-name="습관" transform="translate(756 109)" style="font-size:40px;font-family:SpoqaHanSansNeo-Bold,Spoqa Han Sans Neo;font-weight:700;fill:#10b2bb"><tspan x="-36.8" y="0">습관</tspan></text>
        </g>
    </g>
    <g transform="translate(-501 -582)">
        <rect data-name="사각형 226" width="9" height="9" rx="4.5" transform="translate(501 736)" style="fill:#1dcad3"/>
        <rect data-name="사각형 227" width="9" height="9" rx="4.5" transform="translate(1412 736)" style="fill:#1dcad3"/>
        <rect data-name="사각형 228" width="9" height="9" rx="4.5" transform="translate(956 895)" style="fill:#1dcad3"/>
    </g>
</svg>
