<svg xmlns="http://www.w3.org/2000/svg" xmlns:xlink="http://www.w3.org/1999/xlink" width="120" height="31" viewBox="0 0 120 31">
    <defs>
        <clipPath id="otcwf4znfb">
            <path data-name="사각형 45" style="fill:none" d="M0 0h120v31H0z"/>
        </clipPath>
        <clipPath id="nj6rzzg3fc">
            <path data-name="패스 22" d="M0 4.627v12.191l4-3.382V4.627z" transform="translate(0 -4.627)" style="fill:none"/>
        </clipPath>
        <clipPath id="g1ga5o469d">
            <path data-name="사각형 47" style="fill:none" d="M0 0h120v30.929H0z"/>
        </clipPath>
        <clipPath id="omf806h9be">
            <path data-name="패스 25" d="M86.861 27.754h3.772v-6.941l-3.772-2.865z" transform="translate(-86.422 -16.225)" style="fill:none"/>
        </clipPath>
        <linearGradient id="555grl6o4a" y1="2.493" x2=".216" y2="2.493" gradientUnits="objectBoundingBox">
            <stop offset="0" stop-color="#c7c9cb"/>
            <stop offset="1" stop-color="#fff"/>
        </linearGradient>
        <linearGradient id="8dwy3jb0wf" x1="-18.793" y1="1.372" x2="-18.577" y2="1.372" xlink:href="#555grl6o4a"/>
    </defs>
    <g style="opacity:.5">
        <g data-name="그룹 28" style="clip-path:url(#otcwf4znfb)">
            <path data-name="패스 17" d="M41.65 7.051v17.611h-2.244v-3.067a8.394 8.394 0 0 1-6.885 3.523 9.228 9.228 0 0 1-9.429-9.34A9.1 9.1 0 0 1 32.521 6.6a7.878 7.878 0 0 1 6.885 3.521v-3.07zM32.5 8.624a7.146 7.146 0 0 0-5.083 1.98 6.834 6.834 0 0 0-2.086 5.19 7.059 7.059 0 0 0 2.055 5.33 6.981 6.981 0 0 0 4.988 1.964 6.793 6.793 0 0 0 5.114-2.122 7.156 7.156 0 0 0 2.055-5.172 6.992 6.992 0 0 0-2.039-5.1 6.744 6.744 0 0 0-5-2.075" transform="translate(-2.697 -.757)" style="fill:#fff"/>
            <path data-name="패스 18" d="M45.841 24.662V7.05h2.243v2.312a6.341 6.341 0 0 1 5.46-2.762 7.393 7.393 0 0 1 5.443 2.123q2.15 2.122 2.149 6.351v9.592h-2.243v-9.597a6.88 6.88 0 0 0-1.506-4.794 5.039 5.039 0 0 0-3.906-1.651 5.207 5.207 0 0 0-3.86 1.572q-1.537 1.555-1.537 4.873v9.592z" transform="translate(-5.354 -.757)" style="fill:#fff"/>
            <path data-name="패스 19" d="M82.946 7.051v17.611H80.7v-3.067a8.392 8.392 0 0 1-6.885 3.523 9.226 9.226 0 0 1-9.428-9.34 9.1 9.1 0 0 1 9.43-9.178 7.878 7.878 0 0 1 6.883 3.517V7.051zM73.8 8.624a7.143 7.143 0 0 0-5.082 1.98 6.831 6.831 0 0 0-2.087 5.19 7.066 7.066 0 0 0 2.055 5.33 6.982 6.982 0 0 0 4.989 1.964 6.791 6.791 0 0 0 5.113-2.122 7.153 7.153 0 0 0 2.056-5.172 6.993 6.993 0 0 0-2.04-5.1 6.744 6.744 0 0 0-5-2.075" transform="translate(-7.521 -.757)" style="fill:#fff"/>
            <path data-name="사각형 44" transform="translate(97.386 .004)" style="fill:#fff" d="M0 0h2.242v23.9H0z"/>
            <path data-name="패스 20" d="M117.384 16.69a6.087 6.087 0 0 0 2.087 4.4 6.821 6.821 0 0 0 4.894 2 7.329 7.329 0 0 0 3.342-.958 6.284 6.284 0 0 0 2.824-3.3h2.385a10.059 10.059 0 0 1-3.546 4.67 8.559 8.559 0 0 1-4.988 1.619 8.771 8.771 0 0 1-6.574-2.766 9 9 0 0 1-2.666-6.416 9.3 9.3 0 0 1 2.573-6.556A9.079 9.079 0 0 1 130.72 9.3a9.074 9.074 0 0 1 2.729 6.714v.677zm.032-2.029H131.2a7.056 7.056 0 0 0-2.478-4.449 6.761 6.761 0 0 0-4.361-1.588 6.842 6.842 0 0 0-4.784 1.84 6.145 6.145 0 0 0-2.165 4.2" transform="translate(-13.449 -.757)" style="fill:#fff"/>
            <path data-name="패스 21" d="M4.087 16.086a2.041 2.041 0 0 1-3.443 1.489A4.033 4.033 0 0 1 0 15.085V2.048a2.043 2.043 0 1 1 4.087 0z" style="fill:#fff"/>
        </g>
        <g data-name="그룹 31">
            <g data-name="그룹 30" style="clip-path:url(#nj6rzzg3fc)" transform="translate(0 4.627)">
                <path data-name="사각형 46" style="fill:url(#555grl6o4a)" d="M0 0h4.148v11.191H0z"/>
            </g>
        </g>
        <g data-name="그룹 33">
            <g data-name="그룹 32" style="clip-path:url(#g1ga5o469d)">
                <path data-name="패스 23" d="M9.532 6.388a9.531 9.531 0 1 0 9.531 9.531 9.531 9.531 0 0 0-9.531-9.531m0 15A5.464 5.464 0 1 1 15 15.919a5.465 5.465 0 0 1-5.464 5.464" transform="translate(0 -.747)" style="fill:#fff"/>
                <path data-name="패스 24" d="M90.943 16.58a2.041 2.041 0 0 0-3.292-1.614 3.552 3.552 0 0 0-.791 2.367v13.252a2.042 2.042 0 1 0 4.083 0z" transform="translate(-10.145 -1.698)" style="fill:#fff"/>
            </g>
        </g>
        <g data-name="그룹 35">
            <g data-name="그룹 34" style="clip-path:url(#omf806h9be)" transform="translate(76.358 13.93)">
                <path data-name="사각형 48" style="fill:url(#8dwy3jb0wf)" d="M0 0h4.622v12.446H0z"/>
            </g>
        </g>
        <g data-name="그룹 37">
            <g data-name="그룹 36" style="clip-path:url(#otcwf4znfb)">
                <path data-name="패스 26" d="M96.392 26.156a9.554 9.554 0 1 1 9.53-9.554 9.541 9.541 0 0 1-9.53 9.554m0-15.03a5.477 5.477 0 1 0 5.464 5.476 5.472 5.472 0 0 0-5.464-5.476" transform="translate(-10.145 -.809)" style="fill:#fff"/>
            </g>
        </g>
    </g>
</svg>
