<svg xmlns="http://www.w3.org/2000/svg" xmlns:xlink="http://www.w3.org/1999/xlink" width="90" height="23.25" viewBox="0 0 90 23.25">
    <defs>
        <clipPath id="0a1n2jz4ab">
            <path data-name="사각형 5" style="fill:none" d="M0 0h90v23.25H0z"/>
        </clipPath>
        <clipPath id="ae0224jocc">
            <path data-name="패스 6" d="M0 4.626v7.036L2.945 9.71V4.626z" transform="translate(0 -4.626)" style="fill:none"/>
        </clipPath>
        <clipPath id="r17bnygopd">
            <path data-name="패스 9" d="M86.861 24.406h3.013v-4.571l-3.013-1.887z" transform="translate(-86.861 -17.948)" style="fill:none"/>
        </clipPath>
        <linearGradient id="kjmfts888a" y1="2.493" x2=".216" y2="2.493" gradientUnits="objectBoundingBox">
            <stop offset="0" stop-color="#0d8e91"/>
            <stop offset="1" stop-color="#35b8c7"/>
        </linearGradient>
        <linearGradient id="9e9kt80fle" x1="-18.793" y1="1.371" x2="-18.577" y2="1.371" xlink:href="#kjmfts888a"/>
    </defs>
    <g data-name="그룹 2">
        <g data-name="그룹 1" style="clip-path:url(#0a1n2jz4ab)">
            <path data-name="패스 1" d="M37.01 6.937v13.208h-1.682v-2.3a6.3 6.3 0 0 1-5.164 2.642 6.921 6.921 0 0 1-7.072-7.005A6.824 6.824 0 0 1 30.164 6.6a5.909 5.909 0 0 1 5.164 2.641v-2.3zm-6.859 1.18A5.363 5.363 0 0 0 26.339 9.6a5.125 5.125 0 0 0-1.565 3.893 5.294 5.294 0 0 0 1.541 4 5.239 5.239 0 0 0 3.741 1.473 5.1 5.1 0 0 0 3.835-1.591 5.367 5.367 0 0 0 1.541-3.879A5.244 5.244 0 0 0 33.9 9.673a5.061 5.061 0 0 0-3.753-1.556" transform="translate(-7.796 -2.217)" style="fill:#35b8c7"/>
            <path data-name="패스 2" d="M45.841 20.145V6.937h1.682v1.734A4.754 4.754 0 0 1 51.618 6.6 5.544 5.544 0 0 1 55.7 8.187a6.418 6.418 0 0 1 1.612 4.764v7.194H55.63v-7.194a5.161 5.161 0 0 0-1.129-3.6 3.781 3.781 0 0 0-2.93-1.238A3.905 3.905 0 0 0 48.676 9.3a5.029 5.029 0 0 0-1.153 3.655v7.194z" transform="translate(-15.476 -2.217)" style="fill:#35b8c7"/>
            <path data-name="패스 3" d="M78.307 6.937v13.208h-1.683v-2.3a6.3 6.3 0 0 1-5.164 2.642 6.92 6.92 0 0 1-7.071-7.005A6.823 6.823 0 0 1 71.46 6.6a5.909 5.909 0 0 1 5.164 2.641v-2.3zm-6.859 1.18A5.36 5.36 0 0 0 67.636 9.6a5.123 5.123 0 0 0-1.565 3.893 5.3 5.3 0 0 0 1.541 4 5.239 5.239 0 0 0 3.742 1.473 5.093 5.093 0 0 0 3.835-1.591 5.365 5.365 0 0 0 1.542-3.879A5.245 5.245 0 0 0 75.2 9.673a5.061 5.061 0 0 0-3.753-1.556" transform="translate(-21.738 -2.217)" style="fill:#35b8c7"/>
            <path data-name="사각형 4" transform="translate(73.039 .003)" style="fill:#35b8c7" d="M0 0h1.682v17.925H0z"/>
            <path data-name="패스 4" d="M116.824 14.167a4.565 4.565 0 0 0 1.565 3.3 5.114 5.114 0 0 0 3.67 1.5 5.49 5.49 0 0 0 2.507-.719 4.714 4.714 0 0 0 2.118-2.476h1.788a7.539 7.539 0 0 1-2.66 3.5 6.415 6.415 0 0 1-3.741 1.215 6.58 6.58 0 0 1-4.93-2.075 6.754 6.754 0 0 1-2-4.812 6.978 6.978 0 0 1 1.93-4.917 6.809 6.809 0 0 1 9.754-.059 6.8 6.8 0 0 1 2.047 5.035v.508zm.024-1.522h10.341a5.3 5.3 0 0 0-1.859-3.338 5.074 5.074 0 0 0-3.271-1.191 5.132 5.132 0 0 0-3.588 1.38 4.606 4.606 0 0 0-1.624 3.148" transform="translate(-38.872 -2.217)" style="fill:#35b8c7"/>
            <path data-name="패스 5" d="M3.065 12.064a1.532 1.532 0 0 1-2.582 1.118A3.028 3.028 0 0 1 0 11.314V1.535a1.532 1.532 0 1 1 3.065 0z" style="fill:#35b8c7"/>
        </g>
    </g>
    <g data-name="그룹 4">
        <g data-name="그룹 3" style="clip-path:url(#ae0224jocc)" transform="translate(0 4.069)">
            <path data-name="사각형 6" style="fill:url(#kjmfts888a)" d="M0 0h4.07v10.724H0z"/>
        </g>
    </g>
    <g data-name="그룹 6">
        <g data-name="그룹 5" style="clip-path:url(#0a1n2jz4ab)">
            <path data-name="패스 7" d="M7.149 6.389a7.164 7.164 0 1 0 7.151 7.164 7.156 7.156 0 0 0-7.151-7.164m0 11.273a4.108 4.108 0 1 1 4.1-4.108 4.1 4.1 0 0 1-4.1 4.108" transform="translate(0 -2.147)" style="fill:#35b8c7"/>
            <path data-name="패스 8" d="M89.922 16.073a1.53 1.53 0 0 0-2.469-1.214 2.673 2.673 0 0 0-.594 1.779V26.6a1.531 1.531 0 1 0 3.062 0z" transform="translate(-29.324 -4.886)" style="fill:#35b8c7"/>
        </g>
    </g>
    <g data-name="그룹 8">
        <g data-name="그룹 7" transform="translate(57.572 12.724)" style="clip-path:url(#r17bnygopd)">
            <path data-name="사각형 8" transform="translate(-.627 -4.491)" style="fill:url(#9e9kt80fle)" d="M0 0h3.64v10.949H0z"/>
        </g>
    </g>
    <g data-name="그룹 10">
        <g data-name="그룹 9" style="clip-path:url(#0a1n2jz4ab)">
            <path data-name="패스 10" d="M94.009 21.379a7.165 7.165 0 1 1 7.147-7.165 7.156 7.156 0 0 1-7.147 7.165m0-11.273a4.108 4.108 0 1 0 4.1 4.108 4.1 4.1 0 0 0-4.1-4.108" transform="translate(-29.324 -2.369)" style="fill:#35b8c7"/>
        </g>
    </g>
</svg>
