<svg xmlns="http://www.w3.org/2000/svg" width="120" height="120" viewBox="0 0 120 120">
    <defs>
        <clipPath id="soia34uoja">
            <path data-name="사각형 95" transform="translate(478 1026)" style="fill:#ffd2d2" d="M0 0h40v40H0z"/>
        </clipPath>
    </defs>
    <g data-name="사각형 62" style="stroke:#e8e8e8;fill:none">
        <rect width="120" height="120" rx="60" style="stroke:none"/>
        <rect x=".5" y=".5" width="119" height="119" rx="59.5" style="fill:none"/>
    </g>
    <g data-name="icon_assets" style="clip-path:url(#soia34uoja)" transform="translate(-438 -986)">
        <g data-name="4213403_bill_check_ecommerce_invoice_payment_icon">
            <path data-name="패스 40" d="m508.143 1026-3.17 3.17-3.169-3.17-3.17 3.17-3.169-3.17-3.17 3.17-3.17-3.17-3.169 3.17-3.17-3.17-4.371 4.374v29.667a5.972 5.972 0 0 0 5.956 5.959h29.477a3.747 3.747 0 0 0 3.74-3.74v-24.089h-2.44v24.089a1.331 1.331 0 1 1-2.662 0v-31.886zm-23.772 37.591a3.544 3.544 0 0 1-3.55-3.55v-28.653l1.965-1.965 3.17 3.17 3.17-3.17 3.17 3.17 3.17-3.17 3.17 3.17 3.17-3.17 3.17 3.17 3.17-3.17 1.965 1.965v30.872a3.684 3.684 0 0 0 .254 1.331z"/>
            <path data-name="패스 41" d="M19.017 10.143h-2.535v3.423l-.19.063a4.7 4.7 0 0 0-1.2 8.051l3.772 3.011a2.145 2.145 0 0 1-1.331 3.835h-4.221v2.536h3.17v3.17h2.536v-3.424l.19-.1a4.7 4.7 0 0 0 1.2-8.051l-3.768-3.006a2.145 2.145 0 0 1 1.331-3.835h4.216v-2.535h-3.17z" style="fill:#1dcad3" transform="translate(477.715 1025.81)"/>
        </g>
    </g>
</svg>
