<svg xmlns="http://www.w3.org/2000/svg" width="22" height="22" viewBox="0 0 22 22">
    <defs>
        <clipPath id="ts9tw17w7a">
            <path data-name="사각형 54" transform="translate(21.645 693)" style="fill:#ffc4c4" d="M0 0h22v22H0z"/>
        </clipPath>
    </defs>
    <g data-name="4213412_compose_document_edit_pen_pencil_icon" transform="translate(-21.645 -693)" style="clip-path:url(#ts9tw17w7a)">
        <path data-name="패스 55" d="m17.334 12.043-5.1-5.1L.19 18.984v5.1h5.1zM1.707 22.569V19.61L12.233 9.084l2.959 2.959L4.666 22.569z" style="fill:#1dcad3" transform="translate(21.455 690.895)"/>
        <path data-name="사각형 122" transform="translate(31.886 713.464)" style="fill:#1dcad3" d="M0 0h8.345v1.517H0z"/>
        <path data-name="사각형 123" transform="translate(42.127 713.464)" style="fill:#1dcad3" d="M0 0h1.517v1.517H0z"/>
        <path data-name="패스 56" d="m13.579 5.614 5.1 5.1 3.471-3.509-5.081-5.081zm5.083 2.94-2.94-2.94 1.347-1.347 2.94 2.94z" style="fill:#1dcad3" transform="translate(21.455 690.895)"/>
    </g>
</svg>
