<svg xmlns="http://www.w3.org/2000/svg" width="40" height="40" viewBox="0 0 40 40">
    <defs>
        <clipPath id="972jd7s8da">
            <path data-name="사각형 96" transform="translate(478 1026)" style="fill:#ffd2d2" d="M0 0h40v40H0z"/>
        </clipPath>
    </defs>
    <g transform="translate(-478 -1026)" style="clip-path:url(#972jd7s8da)">
        <g data-name="4213438_label_new_offer_shopping_sign_icon">
            <path data-name="패스 105" d="m514.096 1041.683 1.206-5.683-5.519-1.777-1.783-5.556-5.682 1.238L498 1026l-4.317 3.905-5.683-1.238-1.777 5.524-5.556 1.81 1.206 5.682L478 1046l3.9 4.317-1.233 5.683 5.524 1.783 1.778 5.524 5.683-1.206 4.349 3.9 4.317-3.9 5.683 1.206 1.782-5.524 5.524-1.778-1.206-5.683 3.9-4.317zm-1.619 12.667-4.635 1.492-1.492 4.635-4.767-1.016-3.587 3.238-3.587-3.27-4.762 1.016-1.492-4.6-4.631-1.495 1.016-4.767-3.238-3.583 3.27-3.587-1.016-4.762 4.6-1.492 1.492-4.635 4.765 1.016 3.587-3.238 3.583 3.27 4.762-1.016 1.492 4.6 4.635 1.492-1.011 4.765 3.238 3.587-3.27 3.583z"/>
        </g>
        <path data-name="패스 108" d="M2.375 9.348a1.187 1.187 0 0 1-2 .866A2.346 2.346 0 0 1 0 8.767V1.189a1.187 1.187 0 1 1 2.375 0z" transform="translate(493.46 1038.805)" style="fill:#35b8c7"/>
        <path data-name="패스 109" d="M5.54 6.389a5.552 5.552 0 1 0 5.539 5.552A5.545 5.545 0 0 0 5.54 6.389m0 8.735a3.183 3.183 0 1 1 3.176-3.184 3.18 3.18 0 0 1-3.176 3.184" transform="translate(493.46 1035.703)" style="fill:#35b8c7"/>
    </g>
</svg>
