<svg xmlns="http://www.w3.org/2000/svg" width="130" height="150" viewBox="0 0 130 150">
    <defs>
        <clipPath id="xmr9sju8ka">
            <path data-name="다각형 1" d="M105.569 0a12 12 0 0 1 10.394 6l30.577 53a12 12 0 0 1 0 11.993l-30.577 53a12 12 0 0 1-10.394 6H44.431a12 12 0 0 1-10.394-6L3.46 71a12 12 0 0 1 0-12L34.037 6a12 12 0 0 1 10.394-6z" transform="rotate(90 -502.5 1024.5)" style="fill:#17b8c1"/>
        </clipPath>
        <clipPath id="139noakmwb">
            <path data-name="사각형 118" transform="translate(427 1572)" style="stroke:#707070;fill:#fff" d="M0 0h60v60H0z"/>
        </clipPath>
    </defs>
    <path data-name="다각형 4" d="M105.569 0a12 12 0 0 1 10.394 6l30.577 53a12 12 0 0 1 0 11.993l-30.577 53a12 12 0 0 1-10.394 6H44.431a12 12 0 0 1-10.394-6L3.46 71a12 12 0 0 1 0-12L34.037 6a12 12 0 0 1 10.394-6z" transform="rotate(90 65 65)" style="fill:#1dcad3"/>
    <g data-name="마스크 그룹 10" style="clip-path:url(#xmr9sju8ka)" transform="translate(-392 -1527)">
        <path data-name="사각형 80" transform="translate(457 1527)" style="fill:#18bbc4" d="M0 0h65v150H0z"/>
    </g>
    <g data-name="마스크 그룹 17" style="clip-path:url(#139noakmwb)" transform="translate(-392 -1527)">
        <g data-name="4213462_communication_global_internet_network_web_icon">
            <path data-name="패스 42" d="M30.968 60.968a30 30 0 1 0-30-30 30.026 30.026 0 0 0 30 30zM7.742 42.919l12.194-.1a43.428 43.428 0 0 0 6.725 13.891A26.166 26.166 0 0 1 7.742 42.919zm15.29-20.177h15.194a41.05 41.05 0 0 1 .1 16.113l-15.29.1a39.767 39.767 0 0 1-.004-16.213zm7.6 32.855A38.839 38.839 0 0 1 24 42.823l13.306-.1A40.882 40.882 0 0 1 30.629 55.6zm3.868 1.258a42.665 42.665 0 0 0 6.823-14.177l13.016-.1A26.193 26.193 0 0 1 34.5 56.855zm22.6-25.887a26.985 26.985 0 0 1-1.161 7.742l-13.694.1a43.735 43.735 0 0 0-.1-16.065h13.6a25.72 25.72 0 0 1 1.355 8.223zm-3-12.1H41.226A44.494 44.494 0 0 0 34.5 5.081a26.017 26.017 0 0 1 19.6 13.79zm-16.887 0H24.048a39.978 39.978 0 0 1 6.581-12.529 39.978 39.978 0 0 1 6.581 12.532zM26.661 5.226a43 43 0 0 0-6.629 13.645H7.839A26.037 26.037 0 0 1 26.661 5.226zm-7.548 17.516a44.521 44.521 0 0 0-.048 16.21l-12.919.1a25.026 25.026 0 0 1-1.306-8.081 25.72 25.72 0 0 1 1.355-8.226z" style="fill:#fff" transform="translate(426.032 1571.032)"/>
        </g>
    </g>
</svg>
