<svg xmlns="http://www.w3.org/2000/svg" width="48" height="48" viewBox="0 0 48 48">
    <defs>
        <clipPath id="os3y63q6ga">
            <path data-name="사각형 87" style="fill:#ff5757" d="M0 0h48v48H0z"/>
        </clipPath>
    </defs>
    <g style="clip-path:url(#os3y63q6ga)">
        <g data-name="4213405_cloud_media_seo_services_social_icon">
            <path data-name="패스 92" d="M38.471 23.143h-1.138a13.334 13.334 0 1 0-26.667 0H9.523a9.524 9.524 0 1 0 0 19.048h28.948a9.524 9.524 0 1 0 0-19.048zm0 16H9.523a6.476 6.476 0 1 1 0-12.952h4.19v-3.048a10.286 10.286 0 1 1 20.571 0v3.048h4.187a6.476 6.476 0 0 1 0 12.952z"/>
        </g>
        <path data-name="사각형 207" transform="rotate(45 -9.59 14.81)" style="fill:#1dcad3" d="M0 0h2.667v8H0z"/>
        <path data-name="사각형 208" transform="rotate(135 1.3 10.365)" style="fill:#1dcad3" d="M0 0h2.667v8H0z"/>
        <path data-name="사각형 210" transform="rotate(45 17.217 55.247)" style="fill:#1dcad3" d="M0 0h2.667v8H0z"/>
        <path data-name="사각형 209" transform="rotate(135 20.995 14.357)" style="fill:#1dcad3" d="M0 0h2.667v8H0z"/>
    </g>
</svg>
