<svg xmlns="http://www.w3.org/2000/svg" width="48" height="48" viewBox="0 0 48 48">
    <defs>
        <clipPath id="94cr2bucwa">
            <path data-name="사각형 87" style="fill:#ff5757" d="M0 0h48v48H0z"/>
        </clipPath>
    </defs>
    <g data-name="4213440_community_group_leader_people_team_icon (1)" style="clip-path:url(#94cr2bucwa)">
        <path data-name="패스 83" d="M26.12 17.886a9.085 9.085 0 1 0 9.085 9.085 9.112 9.112 0 0 0-9.085-9.085zm0 15.142a6.057 6.057 0 1 1 6.057-6.057 6.075 6.075 0 0 1-6.057 6.057z" transform="translate(-2.12 -2.063)" style="fill:#1dcad3"/>
        <path data-name="패스 84" d="M24 38.082a20.453 20.453 0 0 0-14.914 6.473l-1.023 1.1 2.2 2.082 1.022-1.1a17.4 17.4 0 0 1 25.438 0l1.014 1.098 2.2-2.08-1.022-1.1A20.6 20.6 0 0 0 24 38.082z"/>
        <path data-name="패스 85" d="M36.492 18.058v3.028a12.665 12.665 0 0 1 9.312 4.05l2.2-2.082a15.752 15.752 0 0 0-11.512-4.996z"/>
        <path data-name="패스 86" d="M43.723 7.496a7.23 7.23 0 1 0-7.23 7.23 7.254 7.254 0 0 0 7.23-7.23zm-11.432 0a4.2 4.2 0 1 1 4.2 4.2 4.217 4.217 0 0 1-4.204-4.2z"/>
        <path data-name="패스 87" d="M11.507 18.058a15.752 15.752 0 0 0-11.508 5l2.2 2.082a12.6 12.6 0 0 1 9.312-4.05z"/>
        <path data-name="패스 88" d="M18.738 7.496a7.23 7.23 0 1 0-7.23 7.23 7.254 7.254 0 0 0 7.23-7.23zm-7.23 4.2a4.2 4.2 0 1 1 4.2-4.2 4.217 4.217 0 0 1-4.198 4.201z"/>
    </g>
</svg>
