<svg xmlns="http://www.w3.org/2000/svg" xmlns:xlink="http://www.w3.org/1999/xlink" width="48" height="48" viewBox="0 0 48 48">
  <defs>
    <style>
      .cls-1 {
        fill: #ff5757;
      }

      .cls-2 {
        clip-path: url(#clip-path);
      }

      .cls-3 {
        fill: none;
        stroke: #1dcad3;
        stroke-width: 3px;
      }
    </style>
    <clipPath id="clip-path">
      <rect id="사각형_87" data-name="사각형 87" class="cls-1" width="48" height="48"/>
    </clipPath>
  </defs>
  <g id="icon_salary" class="cls-2">
    <g id="_4213422_aims_gesture_hand_palm_request_icon" data-name="4213422_aims_gesture_hand_palm_request_icon" transform="translate(0 23.843)">
      <path id="패스_121" data-name="패스 121" d="M44.639,24.785,23.09,33.917a6.109,6.109,0,0,1-5.043-.115L7.425,28.453,6.049,31.166l10.66,5.349a9.2,9.2,0,0,0,4.012.917,8.7,8.7,0,0,0,3.553-.726l21.549-9.093a4.66,4.66,0,0,0,2.483-2.56,4.516,4.516,0,0,0-.115-3.591,4.692,4.692,0,0,0-6.075-2.254l-1.337.573h0l-6.5,2.751,1.184,2.827,6.5-2.751h0l1.337-.573a1.6,1.6,0,0,1,2.1.726,1.426,1.426,0,0,1,.038,1.184A1.449,1.449,0,0,1,44.639,24.785Z" transform="translate(-0.624 -14.461)"/>
      <path id="패스_122" data-name="패스 122" d="M3.455,22.311l3.591-2.98a9.8,9.8,0,0,1,7.145-1.949,9.365,9.365,0,0,1,2.9.8l9.9,4.394a1.349,1.349,0,0,1,.65.573h0a1.613,1.613,0,0,1,.115,1.452,3.359,3.359,0,0,1-.229.382,1.53,1.53,0,0,1-1.758.382l-7.641-3.4-1.261,2.789,7.641,3.4a4.749,4.749,0,0,0,1.872.42,4.543,4.543,0,0,0,3.439-1.566,4.618,4.618,0,0,0,.764-1.146,4.669,4.669,0,0,0-.306-4.317,4.54,4.54,0,0,0-1.987-1.719L18.355,15.4A13.016,13.016,0,0,0,5.212,16.924L.4,20.859V37.632H3.455Z" transform="translate(-0.398 -14.279)"/>
    </g>
    <path id="패스_123" data-name="패스 123" class="cls-3" d="M461.528,1053.693l11.158-11.158,5.455,5.455,9.2-9.2" transform="translate(-450.461 -1035.152)"/>
    <path id="패스_124" data-name="패스 124" class="cls-3" d="M482.144,1038.509h6.428v10.981" transform="translate(-450.143 -1036.1)"/>
  </g>
</svg>
