<svg xmlns="http://www.w3.org/2000/svg" width="22" height="22" viewBox="0 0 22 22">
    <defs>
        <clipPath id="ik41c3ti0a">
            <path data-name="사각형 121" transform="translate(26.645 693)" style="fill:#ffc4c4" d="M0 0h22v22H0z"/>
        </clipPath>
    </defs>
    <g data-name="4213462_communication_global_internet_network_web_icon (1)" transform="translate(-26.645 -693)" style="clip-path:url(#ik41c3ti0a)">
        <path data-name="패스 59" d="M11.355 22.355a11 11 0 1 0-11-11 11.009 11.009 0 0 0 11 11zm-8.516-6.618L7.31 15.7a15.924 15.924 0 0 0 2.466 5.092 9.594 9.594 0 0 1-6.937-5.055zm5.606-7.4h5.571a15.052 15.052 0 0 1 .035 5.908l-5.606.035a14.581 14.581 0 0 1 0-5.941zm2.785 12.047A14.241 14.241 0 0 1 8.8 15.7l4.879-.035a14.99 14.99 0 0 1-2.448 4.72zm1.419.461a15.644 15.644 0 0 0 2.5-5.2l4.773-.035a9.6 9.6 0 0 1-7.272 5.237zm8.285-9.492a9.894 9.894 0 0 1-.426 2.839l-5.021.035a16.036 16.036 0 0 0-.035-5.89h4.985a9.431 9.431 0 0 1 .498 3.018zm-1.1-4.435h-4.718a16.315 16.315 0 0 0-2.466-5.055 9.539 9.539 0 0 1 7.185 5.056zm-6.192 0H8.818a14.659 14.659 0 0 1 2.413-4.6 14.659 14.659 0 0 1 2.413 4.601zm-3.868-5a15.765 15.765 0 0 0-2.431 5H2.874a9.547 9.547 0 0 1 6.902-5.002zM7.008 8.339a16.324 16.324 0 0 0-.018 5.944l-4.737.035a9.176 9.176 0 0 1-.479-2.963 9.431 9.431 0 0 1 .5-3.016z" style="fill:#1dcad3" transform="translate(26.29 692.645)"/>
    </g>
</svg>
